<svg
        xmlns="http://www.w3.org/2000/svg"
        xmlns:xlink="http://www.w3.org/1999/xlink"
        width="590px" height="321px">
    <path fill-rule="evenodd"  fill="rgb(0, 0, 0)"
          d="M531.291,320.310 C518.433,320.505 505.637,313.157 497.519,303.485 C491.109,295.844 490.131,285.595 491.340,276.040 C493.964,255.310 506.288,233.650 526.706,226.336 C538.866,221.986 544.059,241.315 532.028,245.629 C523.416,248.709 517.616,258.135 514.351,266.222 C511.822,272.512 508.480,283.098 512.078,289.588 C517.425,299.211 530.347,302.405 539.828,298.187 C548.030,294.540 553.022,287.491 556.845,279.601 C569.191,254.157 569.937,222.208 569.577,194.516 C569.432,183.173 568.729,171.761 566.953,160.535 C564.760,169.313 561.791,177.860 557.943,185.923 C550.589,201.349 533.905,221.912 514.209,217.447 C505.965,215.580 499.791,209.656 494.980,202.488 C494.724,202.721 494.456,202.950 494.168,203.168 C474.524,218.113 442.183,234.365 421.037,211.647 C416.002,206.248 412.666,199.422 410.563,192.398 C409.937,190.311 409.465,188.189 409.098,186.046 C408.978,185.340 408.728,184.110 408.537,183.123 C399.176,199.736 385.326,214.505 367.005,219.291 C349.637,223.824 328.925,217.802 318.200,204.779 C297.046,215.584 274.984,232.710 247.359,186.012 C245.975,192.999 243.813,199.736 240.471,205.881 C230.780,223.666 212.298,225.812 193.999,222.362 C167.161,217.299 156.530,191.760 150.209,168.052 C145.017,148.553 140.312,128.909 135.662,109.274 C132.693,96.737 151.985,91.431 154.951,103.952 C159.601,123.590 164.297,143.231 169.498,162.730 C174.339,180.885 180.750,201.121 201.840,203.418 C208.626,204.152 214.913,204.722 218.897,201.488 C220.010,200.584 221.851,198.287 223.210,195.774 C224.690,193.055 225.483,190.616 226.380,187.357 C230.644,171.789 229.972,154.840 228.763,138.902 C227.971,128.486 227.348,122.557 225.652,113.292 C223.371,100.792 241.846,95.319 244.942,107.970 C249.400,126.189 253.174,144.776 258.607,162.724 C272.883,209.847 292.980,196.724 310.988,185.801 C310.898,182.368 311.344,178.741 312.451,174.931 C316.148,162.218 324.806,150.831 334.136,141.677 C340.417,135.510 349.824,126.427 359.395,126.612 C372.021,126.852 372.237,146.040 360.107,146.558 C359.956,146.647 359.811,146.734 359.580,146.872 C357.761,147.927 355.994,149.065 354.338,150.350 C350.496,153.344 346.503,157.417 343.121,161.296 C337.392,167.867 328.965,179.115 331.007,188.053 C333.094,197.183 346.944,200.976 355.177,200.871 C365.090,200.735 373.507,195.142 380.173,188.214 C387.117,180.996 392.544,172.026 396.407,162.801 C397.897,159.258 399.040,155.567 399.993,151.849 C400.209,151.007 400.394,150.128 400.530,149.265 C400.585,148.679 400.551,147.702 400.545,147.304 C398.519,128.804 394.264,110.248 391.184,91.918 C388.582,76.427 385.973,60.940 383.374,45.449 C381.271,32.887 400.329,27.421 402.663,40.127 C405.010,52.904 407.362,65.691 409.706,78.468 C415.811,111.713 422.653,144.911 428.045,178.282 C428.172,179.075 428.267,179.867 428.372,180.660 C428.132,178.779 428.853,183.163 429.075,184.101 C429.636,186.484 430.380,188.861 431.308,191.134 C431.567,191.581 432.535,193.582 432.726,193.918 C433.007,194.405 434.477,196.542 434.508,196.702 C438.405,201.438 442.093,203.113 449.009,202.360 C462.042,200.926 474.043,193.551 484.091,185.908 L484.091,185.907 C484.693,185.451 485.293,185.088 485.889,184.797 C485.361,183.539 484.855,182.306 484.371,181.116 C479.972,170.290 476.379,159.015 473.746,147.631 C470.848,135.075 490.140,129.772 493.036,142.309 C494.997,150.782 497.540,159.159 500.454,167.346 C503.615,176.241 508.455,192.845 517.616,197.510 C519.969,198.710 525.722,195.725 529.169,192.645 C535.043,187.403 539.021,179.972 542.036,172.809 C549.045,156.184 551.918,137.539 551.366,119.579 C551.086,110.279 562.198,107.273 568.439,112.505 C577.328,119.955 581.346,132.522 583.979,143.388 C587.993,160.023 589.387,177.434 589.603,194.510 L589.603,194.510 C590.099,233.113 587.642,319.472 531.291,320.310 ZM400.505,149.552 L400.505,149.552 C400.520,149.487 400.530,149.382 400.536,149.296 C400.456,149.743 400.144,151.152 400.505,149.552 ZM408.642,183.012 C408.633,183.021 408.627,183.037 408.617,183.052 C408.688,183.364 408.747,183.635 408.849,184.085 C408.768,183.734 408.722,183.364 408.642,183.012 ZM153.577,204.753 L153.577,204.753 C162.546,214.003 148.418,228.155 139.424,218.909 C108.572,187.119 77.726,155.321 46.874,123.525 C42.681,119.206 42.962,110.708 48.897,107.819 C65.260,99.858 85.718,88.159 90.097,68.805 C92.890,56.435 86.942,44.545 78.238,36.017 C70.357,28.296 59.692,22.552 48.675,21.047 C43.402,20.326 37.815,20.582 32.759,22.352 C30.600,23.104 28.689,24.143 26.728,25.312 C24.862,26.415 24.637,26.927 24.351,27.319 C20.647,32.409 20.814,42.634 21.125,50.499 C21.637,63.181 23.829,75.733 26.398,88.135 C32.191,116.116 40.344,143.607 49.193,170.765 C53.587,184.230 60.099,197.929 63.278,211.731 C66.158,224.286 46.865,229.589 43.985,217.052 C42.481,210.497 39.345,204.001 37.153,197.655 C31.976,182.685 27.064,167.629 22.485,152.466 C13.102,121.373 4.173,89.322 1.515,56.826 C0.572,45.282 0.322,32.625 4.867,21.760 C9.612,10.413 20.965,4.012 32.697,1.755 C61.323,-3.758 93.633,14.230 105.708,40.432 C121.220,74.078 97.938,102.074 70.286,118.910 L153.577,204.753 Z"/>
</svg>